<svg version="1" xmlns="http://www.w3.org/2000/svg" width="533.333" height="533.333" viewBox="0 0 400.000000 400.000000"><path d="M162.7 48.7c-1.2 1.1-.8 2.3.9 2.3.8 0 3 1.1 4.8 2.5 3.4 2.6 5.6 3.2 5.6 1.6 0-.8-9-7.1-10.2-7.1-.2 0-.8.3-1.1.7zM160.6 54.4c-1.7 2.6-2.1 5.6-.8 5.6.7 0 3.3-7.2 2.8-7.8-.2-.1-1.1.9-2 2.2zM149.8 65.3c-2.5 2.1-3.9 7.5-4.2 16.1-.1 1.3-1.4 2.3-4.6 3.4-9 2.9-8.4 2.4-6.1 5.1l2.1 2.4v-2.7c0-1.6.4-2.5 1-2.1.6.3 1 2.4 1 4.6 0 3.5-.2 3.9-2.6 3.9-2.2 0-2.4.2-1.4 1.5 1.2 1.5.5 3.9-1 3-1.1-.7-2.7 1.5-3.5 4.8-1 3.8 1.9 6.2 4.9 4.1 1.1-.8 3.4-1.4 5-1.4 2.9 0 2.9.1 1.1 1.4-1.1.7-3.8 1.6-6 2-5 1-5.7 1.4-4.8 2.9.4.7.8 2.5.9 4.1.1 1.6.7 3.2 1.3 3.5 1.8 1.2.9 7.3-1.1 7.9-2.8.7-2.1 2.2 1 2.3 2 .1 2.2.3.8.6-1.1.3-2.6 1.1-3.3 1.9-1.1 1.1-1.9 1.1-3.5.3-1.1-.6-2.2-.8-2.5-.5-.3.3-.8 3.6-1 7.3-.3 3.7-.2 6.5.2 6.1.4-.4.9-2.8 1.1-5.4.2-2.6.8-5.2 1.3-5.7 1.6-1.6 4.2 1.3 4 4.2-.1 1.4.1 3.3.4 4.1.3.8.8 2.8 1 4.5.3 2.3.4 2 .6-1.3.1-5.7 2.1-4.5 2.1 1.4 0 3.9-.3 4.4-2.2 4.5-3.7.2-4.3.4-4.5 1.1-.8 2.2 0 2.5 3.4 1.7 2.1-.4 3.9-.6 4.2-.3.7.7-.2 1.2-2.9 1.8-1.4.2-4 .8-5.7 1.2-2.6.5-3.4.3-3.9-1.1-.4-.9-.2-2 .3-2.4 1.3-.8 1.5-7.3.3-6.6-1 .6-2.6 10.6-1.9 11.5.2.2 1.2.3 2.1.2 2.4-.4 5.6 2.7 5.1 4.9-.4 1.5-.1 1.8 1.1 1.3 1.7-.6 1.9.1 1.6 4.8-.1 2.2.3 2.8 1.9 2.8 1.2 0 2.1.6 2.1 1.5 0 1.2-.4 1.3-1.9.5-2.8-1.4-3.6-1.2-2.1.5.9 1 .9 1.5.1 1.5-.6 0-1.1.7-1.1 1.5 0 2.1 3 1.9 3.1-.3 0-1.3.2-1.4.6-.2.3.8 1.1 1.8 1.7 2.2.6.4-.5.8-2.5.8s-5.1.3-6.8.6c-2.6.5-3.1 1.1-3.1 3.4 0 3.7-2.8 4.8-3.6 1.4-.3-1.3-.3-3.4 0-4.7.3-1.2.8-5.8 1.1-10.2l.4-8-1 6c-.6 3.4-1.7 6.5-2.6 7.2-1 .8-1.2 1.3-.5 1.3 1.5 0 1.5 2 .2 5.6-1 2.5-1.2 2.6-2.9 1-.9-.9-2.6-1.6-3.7-1.7-1.8 0-1.8-.1.1-.9 1.8-.8 1.7-.9-.7-.9-2.2-.1-2.8.4-2.8 1.9 0 1.1-.7 2-1.5 2s-1.5.4-1.5 1c0 .5-.7 1-1.5 1-1.1 0-1.4-.9-1.2-3.3.2-2.9.5-3.2 2.8-2.9 1.5.2 3-.1 3.3-.7.5-.7-.2-1.1-1.8-1.1-1.4 0-2.8-.5-3.1-1-.4-.7-1.1-.8-1.8-.1-.7.5-2.4.7-3.9.4-2.4-.5-2.6-.9-2.2-4 .3-2.6-.1-3.9-1.2-4.8-1.7-1.2-1.1-4 .7-3 .5.4.9-.1.9-.9 0-1.3-2.8-3.6-4.5-3.6-.3 0-1 1.2-1.5 2.6-.8 2-1.3 2.4-2.4 1.5-.9-.8-2.3-.6-5.4.9-2.3 1.1-5.7 2-7.6 2-2.8 0-3.4.3-2.9 1.6.5 1.4.1 1.5-2.5.9-2.3-.5-3.2-.3-3.3.7-.1 2.6-1 7.3-1.5 7.7-.2.2-.5-.5-.5-1.7-.2-3.9-.4-4.3-1.9-5.2-.8-.5-1.1-1-.6-1 .5 0 .4-.6-.1-1.3-1-1.3-1-4 .1-7.5.6-1.6.3-2.2-.8-2.2-.9 0-1.6-.3-1.7-.8 0-.4-.1-2.7-.2-5.2-.1-4.2 0-4.5 2.3-4.3l2.5.2-2.6-1.2c-3.4-1.6-5.9-3.7-5.9-5 0-.6.3-.7.7-.4.3.4 1.2.2 1.9-.4 1-.8 1.1-1.6.3-3.1-.9-1.6-1.3-1.8-2-.7-.9 1.6-1.7 1-2.2-1.7-.1-1-.7-2.6-1.2-3.4-.5-.8-1-2.9-1.2-4.6-.2-3.1-.1-3.1 7.5-4.7 4.2-.9 9.7-1.9 12.2-2.2 4.2-.5 4.3-.4 1.3.5-3.8 1.2-4.4 2.8-1 2.5 6.8-.5 13.7-1.8 13.7-2.6 0-.4 1.2-.8 2.8-.7 4.3.1 14.4-1.2 16.2-2.2 1.9-1 3-.4 3 1.5 0 .7-2.2 1.7-5 2.2-3.6.7-5 .7-5-.1 0-.7-.3-.6-.8.2-.5.7-7.5 2.4-16 3.9-15.5 2.7-16.9 3.4-13.6 6.7 1.9 1.9 1 3.6-1.8 3.6-2 0-2 0 0 1.7 2.6 2.4 5.7 10.3 3.9 10.3-.6 0-.1.9 1.3 2l2.5 2h-2.3c-1.3 0-2 .4-1.7 1 .4.6 1.1.8 1.6.4.5-.3 1.6-.1 2.3.5 1 .9 1.5-.2 2.4-5.2 2.1-11.4 3-14.9 3.8-15.7.5-.5 11-2.5 23.4-4.4 18.5-2.9 22.7-3.3 23.5-2.2.8 1.1 1.3 1.1 2.2.1.8-.9.8-1.6.1-2.3-.8-.8-.8-2.9-.1-7.1.7-4.3.6-6.1-.1-6.1-.6 0-.5-.4.3-.9s1.1-1.6.7-2.9c-.4-1.1-.2-2.3.3-2.7.6-.3 1-2.1.9-4-.1-2.2-.5-3.2-1.2-2.8-.8.5-.8.3 0-.8 1.3-1.7 1.6-5.7.4-6.4-.5-.3-2.8.1-5.2.9-2.4.8-7.6 2.2-11.5 3.2-7.5 1.9-8.3 2.5-5.9 5 1.9 1.9 3 1.8 2.2-.2-.5-1.4-.4-1.5.8-.5 1.1.9 1.5.9 1.8-.1.4-1 .8-1 2.2.1 1.4 1.2 1.6 1.2 1-.4-.6-1.5-.4-1.6 1.5-.6 2.4 1.3 4.1.7 4.1-1.5 0-1.4.2-1.4 1.5-.1.8.9 2.4 1.3 3.5 1 1.1-.3 2-.2 2 .1 0 1.3-5.6 2.9-30 8.2-1.4.3-4.3 1-6.5 1.6-5 1.3-5.2 1.3-10 2.2-2.2.3-6.2 1.3-9 2-5.5 1.6-12.6 3.4-25.6 6.7l-8.7 2.1 1 3.7c.5 2 1.2 4.3 1.5 5.1.3.8.5 2.9.4 4.6-.1 1.7.5 4.8 1.3 6.9.9 2 1.4 4.1 1.1 4.5-.6 1 2 6.2 2.7 5.4.3-.2.8.4 1.1 1.6.3 1.1.2 2-.3 2-.4 0-1 1.1-1.2 2.5-.7 3.6.7 3.1 2.2-.8 1.5-4.2 3.2-7.7 2.6-5.6-.2.9-.8 3.7-1.1 6.3-.4 2.5-1.2 4.6-1.8 4.6-.6 0 0 1.1 1.4 2.6 1.9 2 2 2.4.5 1.8-1.6-.6-1.7-.4-.7 1.4 1.8 3.3 1.3 4.2-2.1 4.2-4.1.1-6.8 2-6.5 4.8.1 2.4 1.7 3.1 1.7.8 0-2.6 1.9-2.8 5.5-.6 3 1.9 3.3 2.4 2.5 4.6-1.5 3.8-1.2 5.4 1 5.4 1.1 0 2 .4 2 1s2.9 1 6.7 1c3.6 0 6.4.3 6 .6-.3.4-6.6.7-13.9.8l-13.3.1-1 8.5c-.6 4.7-1.4 9.1-1.8 9.7-.5.8-2.8 1.3-5.5 1.3-5.6 0-25.8-2.6-27.2-3.5-.6-.3-1-.2-1 .4 0 .5.8 1.2 1.8 1.4 1.6.4 1.6.5 0 .6-1.7.1-1.8 5.3-1.8 93.6V400h112.8l.6-2.7c3.7-17.1 4.5-39.4 2-54.3-.8-5.2-2.1-17.4-2.9-27-1-14.1-1.7-18.5-3.5-22.3-2.4-5.1-11.9-14.5-19.3-19.2-5-3.2-5.8-4.5-2.8-4.5 1.1 0 5 2.5 8.8 5.6 14.9 12.2 17.6 18.4 18.7 43.4.3 6.9 1.4 16.5 2.3 21.5 2.2 11.4 2.1 31.9-.1 47.4-.9 6.3-1.5 11.6-1.3 11.8.2.2 45.8.2 101.4.1l101-.3-2.3-11c-1.3-6.1-2.6-14.9-3-19.6-.8-9.9 1.3-37.9 2.8-37.9.7 0 .8 2.4.4 6.2-2.3 24.2-1.9 35.6 2 54.5l1.7 8.3h19.8c18.5 0 19.8-.1 19.2-1.8-.3-.9-.9-2.2-1.3-2.7-.9-1.2-4.5-10.9-6.7-18-1.8-6-4.3-11.4-6.2-13.8-1.6-1.9-.9-2.2 2-.6 1.5.7 2.4.7 3.4-.1.8-.7 1.9-.9 2.5-.5.5.3 1 .1 1-.4 0-.6.7-1.1 1.6-1.1 1 0 1.4-.6 1-1.5-.4-1.1.2-1.5 2.2-1.5 1.5 0 3.5-.9 4.5-2 .9-1.1 2.3-1.7 3.2-1.4 1 .4 1.5 0 1.5-1.4s.9-2.2 2.9-2.7c1.6-.3 3.5-1.3 4.2-2.1.6-.8 1.7-1.4 2.4-1.4s1.5-.7 1.9-1.5c.3-.9 1.2-1.2 2.2-.8 1.2.4 1.5.3 1-.5s0-1.2 1.2-1.2c1.1 0 2.3-.7 2.6-1.6.3-.9 1.2-1.4 1.9-1.1.6.2 2.2-.4 3.4-1.5 2.1-2 2.1-2 3.2 0 .9 1.7 1.4 1.9 3.6.9 2.5-1.2 2.5-1.4 2.5-13.5 0-11.5-.1-12.2-2-12.2-1.1 0-2 .5-2 1.1 0 .7-1.1.9-2.7.6-1.6-.4-8.2-1.5-14.8-2.7-28-4.7-29.5-4.9-31.5-2.5-1 1.2-1 1.5.2 1.5.8 0 1.9-.5 2.6-1.2.9-.9 1.5-.9 2.4 0 .9.9.9 1.2-.1 1.2-.7 0-.9.4-.6 1 .3.5 1.4 1 2.4 1s3.2.7 4.7 1.5c1.6.8 3.8 1.5 4.9 1.5 1.1.1 5.2 1.4 9 3l7 2.9-4 .2c-2.2.2-5.2.3-6.7.2-1.8-.1-2.8.4-2.8 1.3 0 1 1 1.2 4.5.7 3.8-.5 4.5-.3 4.5 1.1 0 1.3-.5 1.6-1.9 1.1-1.1-.3-2.2-.1-2.6.5-.3.5-1.8.8-3.3.5-1.5-.3-2-.2-1.2.2 3.9 1.7 3.6 2.8-.8 3-2.5.1-4.9.8-5.3 1.5-.7 1-.9 1-.9 0 0-.6-.5-1.2-1.1-1.2-.6 0-.9.7-.5 1.5.3.8.3 2.2 0 3-.7 1.7-4.4 2.1-4.4.4 0-.6-1-.9-2.2-.7-1.6.2-2.4 1.2-2.8 3.2-.4 2.6-.6 2.7-1.8 1.3-.8-.9-1-2.2-.6-2.9.5-.9.4-1-.4-.3-.5.5-1.2 1.9-1.5 3-.4 1.8-.5 1.7-.6-.3-.1-1.4-.6-2.2-1.3-1.9-.7.2-1.2 1.4-1.1 2.6.2 1.1-.2 2.1-.7 2.1-.6 0-1-.5-1-1 0-.6-1-1-2.2-1-2.1.1-2.2.2-.5 1.4 1.8 1.4 2.5 4.2.7 3.1-.5-.3-1 .2-1.1 1.2-.1 1-.6.1-1.1-2-.6-2-1.4-3.7-1.9-3.7-1.3 0-1.1 2.4.2 3.7 1.3 1.3.5 4.3-1.2 4.3-.6 0-.9-.7-.5-1.5.3-.8 0-1.4-.6-1.2-1.4.3-4.6-5.4-4-7.1.2-.7 0-1.2-.5-1-.6.2-3-2-5.5-4.7-5.7-6.3-11.9-9.5-18.5-9.5-7.2 0-13.2-2.3-13.3-5.1 0-.4 2.8-1.2 6.3-1.8 3.4-.6 11.6-2.6 18.2-4.5s14.9-4 18.5-4.6c3.6-.6 7-1.5 7.5-1.9 1-.8 5.7-2.1 22-6.5 5-1.4 15.6-4.4 23.8-6.7l14.7-4.2v-13.3c0-10.1-.3-13.4-1.2-13.4-1 0-1-.2-.1-.8 1.5-.9 1.4-7.4-.1-8.4-.8-.5-.7-.8.2-.8.7 0 1.2-1.3 1.2-3.3 0-2.7-.5-3.5-3-4.4-3.3-1.2-4-3.2-1.2-3.4 3.1-.2-3.1-1.7-7.3-1.8-3.8-.1-4.1.1-4 2.6 0 1.7-.5 2.7-1.2 2.5-.7-.1-1.3.2-1.3.7 0 .5-.9 1.3-2 1.6-2.9.9-2.5 2.2 1 2.8 1.7.4 3 1.3 3 2.1 0 .9-.7 1.3-2.2.9-1.9-.4-2-.3-.8.6 1.1.8.1 1.1-4.2 1.1-3.6 0-5.8.5-6.1 1.2-.4 1-.6 1-.6 0-.1-.6-1-1.2-2-1.2-1.1 0-2.3-.5-2.6-1-.3-.6.1-1 .9-1 .9 0 1.6-.8 1.6-1.9 0-1.5.8-2.1 3.3-2.3 2.5-.3 1.9-.6-3.3-1.5-5.3-.9-5.8-1.1-2.6-1.2 2.9-.1 3.7-.4 3.2-1.6-.3-.8.2-1.9 1.2-2.4 1.5-.8 1.4-1.1-1-2-1.6-.6-2.8-1.7-2.8-2.6 0-.8-.6-1.6-1.2-1.7-.7 0-1.7-.2-2.3-.2-.5-.1-1.6-.5-2.3-.9-.7-.5-1.4-.2-1.8.7-.9 2.3-4.3 1.9-5.3-.6-.4-1.3-1-1.7-1.4-1.1-1.1 1.8-6.3-.1-5.9-2.1.2-.9-.3-2.3-1.1-3-1.1-1.1-1.6-1.1-3.3.3-1.7 1.4-1.8 1.9-.8 2.9.7.7 1.8 1.2 2.4 1.2.5 0 1 .4 1 1 0 .9-4.2 1.5-8.3 1-.9-.1-1.7.2-1.6.7.4 2.4-.3 4.3-1.6 4.3-.8 0-1.5-.5-1.5-1 0-.6.5-1 1-1 2.4 0 .7-2.6-1.7-2.8-2.2-.1-2.4 0-1.3.8.9.6 1 1 .3 1-2.5 0-2.4-2.3.1-4.6 2-1.9 2.6-2.1 2.6-.9 0 2 2.6 2 3.4-.1.3-.8 1-1.2 1.6-.9.6.3 1-.4 1-1.7-.1-2.2-.1-2.2-1.5-.5-1.6 2.2-5.5 1.5-5.5-.9 0-1.3-.2-1.3-1.6 0-2.5 2.6-4.5 3.2-10.7 3.5-6.4.2-6 .8-4.1-6 .6-2 1-2.1 9.6-1.4 4.9.3 9.9.8 11.1 1 1.2.2 8.1.9 15.2 1.5 7.2.6 14.1 1.3 15.5 1.5 1.4.3 8.4.9 15.5 1.5 7.2.6 14.2 1.3 15.8 1.6l2.7.6V219c0-10.2-.1-11-1.6-9.6-1.2 1.3-3.6 1.6-11.2 1.5-12.4-.3-9.5-1.7 7.1-3.5 5.1-.6 5.7-.9 5.7-2.9v-2.3l-7.2 1.9c-4 1.1-10.4 2.2-14.3 2.4-3.8.3-10.4.9-14.5 1.3-9 .8-17 .4-17-.9 0-.5 2.1-.9 4.6-.9 4.1 0 4.6-.2 4.1-2-.3-1.2 0-2 .8-2 .7 0 1.5.9 1.8 2.1.4 1.6.9 1.9 2.4 1.1 1.6-.8 8.4-2.1 13.9-2.6 1.1-.1 2.4-.5 3-.8.5-.3 2.3-.9 4-1.2 2.5-.6 3.1-1.1 2.7-2.7-.3-1 0-1.9.6-1.9s1.1.7 1.1 1.5c0 1.1.8 1.3 3.2.8 2-.4 2.9-.3 2.5.4-.4.6 1.4.3 3.8-.6 3.1-1.1 4.5-2.2 4.5-3.4 0-1.5-.6-1.8-3.2-1.3l-3.3.6 3.3-1.5c1.7-.8 3.2-2.2 3.2-3 0-2-.5-1.9-10.2 1.1-16.5 5.3-30.9 7.6-50.3 8.1-12.7.3-17.6.1-16.5-.6.8-.6 3.1-1.1 5-1.1 3.8 0 11.4-1.7 43-9.6 26.8-6.7 29-7.4 29-9.6 0-2.2-.2-2.2-6.5-.2-13.5 4.1-32 8.8-50.5 12.8-22.8 5-22.8 5-23.2 2.9-.3-1-.1-2.8.4-4.1.4-1.2.3-3.3-.2-4.6-.5-1.3-.7-2.6-.4-2.8.2-.3-.2-3.4-.9-6.9-1.5-7-4.3-13-8-17.5-1.4-1.6-3.4-4.4-4.5-6.2-3.8-6.4-11.1-13.1-14.9-13.8-1.9-.4-5-1.9-6.8-3.5-4.7-4.1-8-5.1-18-5.4-9-.3-10.9-.5-15.5-2.2-1.4-.6-5-1.1-8-1.2-3-.2-5.7-.4-6.1-.6-.6-.4-8.2 2-11.1 3.6-1 .5-1.8 1.4-1.8 1.9 0 1.5-5.2 7-6.6 7-.7 0-2.6 1.2-4.3 2.6-1.7 1.4-3.6 2.2-4.2 1.8-.8-.5-1-.2-.6.9.8 2-1.8 3-4.2 1.5-2.2-1.4-7.4-11.5-6.5-12.9.3-.5-1-2.5-3-4.5-1.9-1.9-3.6-4-3.9-4.7-.2-.6-.6.2-.8 1.9-.3 1.7-.2 4 .2 5 .4 1.1.8 1.3.8.6.2-2.8 2.2-.8 6.2 6 2.4 4 4.9 8.1 5.7 9 1.3 1.6 1.3 2-.3 3.8-1 1.1-2.3 2-2.9 2-.6 0-6.4-4.5-12.8-10-10.4-8.9-26.7-26.4-31.5-33.7l-1.8-2.7-.5 3.4c-.7 4.2-.1 7.2 1.2 6.4 1.6-1 3.8 1.7 7.5 9.2 1.9 4.1 4.1 7.8 4.9 8.4.7.7 1.1 1.7.8 2.4-.3.8.4 1.6 1.6 1.9 1.2.3 1.9 1 1.5 1.6-.3.6-.2 1.1.4 1.1.5 0 1.2.8 1.5 1.7.3 1 3.3 4.7 6.6 8.3 3.3 3.6 6.3 7.3 6.6 8.2.3 1 1.2 1.8 1.9 1.8.8 0 2.6 1.5 4 3.4l2.6 3.4-2.1 5.3c-1.5 4-5 22.5-5 26.6 0 .2-2.5.3-5.6.3-3.3 0-5.3-.4-4.9-1 .3-.5.2-1.8-.4-2.7-.6-1.3-.5-2.9.4-5.1 1.1-2.5 1.1-3.2.2-3.2-.7 0-1.9.6-2.5 1.2-2.1 2.1-3.9-2.3-3.4-8.5.2-1.9-5.2-5.7-8.1-5.7-1 0-2.1 1-2.6 2.2l-.8 2.2-.5-2.2c-.4-1.5-1.2-2-2.7-1.7-1.6.3-2.5-.3-3.3-2.3-1.1-2.6-1.2-2.4-1.8 3.1-.4 3.2-1.5 6.6-2.4 7.6-.9.9-1.6 2.5-1.6 3.5s-.7 2.4-1.5 3.2c-.8.9-1.5 2.4-1.5 3.5s-.7 1.9-1.7 1.9c-3.8 0-4.4-1.4-3.9-8.6.4-3.8.9-10.6 1.2-15.2.6-6.8 1.1-8.5 2.8-9.7 1.6-1.2 1.7-1.5.4-1.5-1.6 0-1.9-2.2-.5-3.6.4-.4.2-1.3-.4-2.1-.9-.9-.8-1.7 0-2.7.6-.8 1.1-1.8.9-2.2-.1-.5.2-3.7.6-7.1.5-4.1 1.3-6.4 2.3-6.8 1.4-.5 1.4-.7-.2-1.8-1.6-1.3-1.6-1.4 0-3 .9-.9 1.2-1.7.6-1.7-1.4 0-1.4-7.3-.1-8.6.6-.6.6-2.1.1-3.9-.5-1.7-1-2.4-1-1.6-.1.8-.4 1.1-.8.7-.4-.4.3-1.6 1.7-2.6 2.2-1.7 2.3-1.9.7-2.5-2.4-1-2.1-2.2 1.1-3.9 2.5-1.4 2.6-1.5.5-1.6-2.6 0-2.6-.3-1.4-10.3.6-4.1 1.6-7.6 2.7-8.8.9-1 1.4-2 1.1-2-.4-.1-1.3-.2-1.9-.3-.7-.1-1.1-.8-.9-1.6.2-.8.8-3.7 1.3-6.4.5-2.8 1.7-5.5 2.5-6.1.8-.6 1.4-1.9 1.2-2.7-.3-1.4-.8-1.3-3.1.5zm-5.3 26.5c-.3 1.5-.8 3.5-1.2 4.6-.4 1.4-.2 1.6.8 1 1.1-.6 1.2-.5.3.7-.6.8-1.4 2.7-1.8 4.3-.9 3.7-2.7 2.2-3.3-2.8-.2-2.6 0-3.6 1.1-3.6.9 0 1.6-1.7 2.1-5.2.6-4 .9-4.8 1.7-3.4.5 1 .7 2.9.3 4.4zm-27 10.2c.3.5.1 1-.4 1-.6 0-1.1-.5-1.1-1 0-.6.2-1 .4-1 .3 0 .8.4 1.1 1zm17.5 1c0 .5-.5 1-1.1 1-.5 0-.7-.5-.4-1 .3-.6.8-1 1.1-1 .2 0 .4.4.4 1zm-10 11.7c0 .9-49.2 11.4-49.9 10.7-.9-.9 1.1-1.7 5.6-2.5 2.7-.4 13.4-2.6 23.8-4.8 22-4.6 20.5-4.3 20.5-3.4zm45 11.3c2.5 2.5 5.4 5.7 6.5 7.2 1.1 1.6 2.4 2.8 3 2.8.6 0 3.1 2.1 5.5 4.6 2.5 2.5 5.6 5.2 7 6 1.4.7 3.5 2.2 4.7 3.2 2 1.8 2.1 2.2.8 5.8-2 6-3.6 6.4-8.2 1.8-9-9-27.1-33.3-27.4-36.8 0-.6-.2-2-.4-3.1-.3-1.5.1-1.3 1.8 1 1.2 1.6 4.2 5 6.7 7.5zm-53-5c0 .5-.6 1-1.4 1-.8 0-1.7.8-2 1.7-.6 1.5-.8 1.5-1.6.3-1.2-1.8-1.3-3.3-.2-2.7.4.3 1.6.1 2.7-.4 1.1-.4 2.1-.8 2.3-.8.1-.1.2.3.2.9zm-6.6 1.6c.4.9.4 1.9.1 2.2-.3.3-.5-.1-.5-.9 0-1.2-.2-1.1-1 .1-.9 1.3-1.1 1.3-2 0-1.4-2.2-1.2-3 .9-3 1 0 2.2.7 2.5 1.6zm27.6 3c0 3.4-2.1 4.7-3.6 2.2-.4-.7-.3-.8.4-.4 1.1.7 1.6-1.2 1.5-5.1-.1-.7.3-1 .8-.7.5.3.9 2.1.9 4zm3.7-1.4c-.3.7-.5.2-.5-1.2s.2-1.9.5-1.3c.2.7.2 1.9 0 2.5zM50 146c0 1.1-.4 2-.9 2s-.7-.9-.4-2c.3-1.1.7-2 .9-2 .2 0 .4.9.4 2zm0 5c0 .5-.4 1-1 1-.5 0-1-.5-1-1 0-.6.5-1 1-1 .6 0 1 .4 1 1zm84 11.7c0 1.4-1.9 3.8-2.5 3.2-.8-.8.5-3.9 1.6-3.9.5 0 .9.3.9.7zm-77 2.8c0 1.9-.5 2.5-2.1 2.5-1.9 0-1.9-.1-.5-1.6.9-.8 1.6-2 1.6-2.5s.2-.9.5-.9.5 1.1.5 2.5zm78.7 2.7c-.3.7-.5.2-.5-1.2s.2-1.9.5-1.3c.2.7.2 1.9 0 2.5zm-1 5c-.3.8-.6.5-.6-.6-.1-1.1.2-1.7.5-1.3.3.3.4 1.2.1 1.9zM74 173c-1.3.8-1.2 1 .3 1 .9 0 1.6.5 1.5 1.2-.2.6.5 1.4 1.6 1.6 1.1.2 1.6 0 1.2-.6-.3-.6-.2-1.3.4-1.7.6-.4.8-1.2.4-1.8-.3-.7.2-.3 1 .7.9 1.1 1.3 2.2.8 2.5-.4.3-.7 2.3-.6 4.3 0 2.1-.4 3.8-.9 3.8-.6 0-.7.3-.4.7.4.3.2 1.2-.4 2-.9 1-.8 1.3.2 1.3 1.1 0 1.1.2-.1 1-1 .6-1.1 1-.2 1 .6 0 1.2.4 1.2.8 0 .8-1.5.9-8.4.4-2.7-.2-4.3-4.1-2.3-5.4.9-.6.8-.8-.3-.8s-1.6-1.4-1.8-5c-.3-4.7-.2-5 2.1-5 1.4 0 2.7-.7 3.1-1.5.3-.8 1.1-1.5 1.8-1.5.9 0 .8.3-.2 1zm175 1.4c1.9-.1 4.5-.4 5.8-.9 1.6-.5 2.2-.3 2.2.7 0 3.3 6.8 6.4 13.3 5.9 1.5-.1 2.7.3 2.7.8s1.9 1.3 4.3 1.7c2.3.4 3.7.9 3.1 1.1-1.5.5 3.3 5.5 6.6 7 1.4.5 5 1.8 8 2.8 9.1 3 9.3 3.1 8.6 7.7-.4 2.2-1.4 5.1-2.4 6.5-1.2 2-1.7 5.1-1.8 12.7-.2 10.7-2.3 21.6-7.6 39.6-6.6 22.6-10.4 32-13.9 35.1-1.1.9-1.9 2.1-1.9 2.8 0 1.5-1.7 1.4-2.3-.2-.3-.7-.6-.6-.6.5-.1 1.8-2.7 3-7.8 3.6-.7.1-1.3 1.4-1.4 2.9 0 2.5-.1 2.6-.9.8-.7-1.8-.9-1.8-1.5-.3-.7 1.8-7.3 4.8-10.6 4.8-1.1 0-3.1 1.1-4.4 2.4-4 4-17.8 7.2-18.8 4.3-.3-.9-.7-.9-1.9.1-1.1.9-1.8 1-2.3.2-.3-.6-1.1-.8-1.6-.4-.6.3-1.3-.3-1.6-1.5-.3-1.2-1.1-2.1-1.8-2.1s-1.5-.7-1.9-1.5c-.3-.8-1.4-1.5-2.4-1.5-1.1 0-3.1-1.1-4.6-2.5-1.5-1.4-3.1-2.5-3.5-2.5-1.4 0-.4-7 1.4-9.6 2.2-3.5 4-3.9 7.9-2 4 1.9 8.5 2.1 12.1.4 3.1-1.4 3.2-2.6.3-3.7-3.1-1.2-5.9-4.7-5.2-6.6.7-1.8 3.4-1.9 12.9-.3 3.9.6 8.7 1 10.9.9 2.1-.1 4.3.2 5 .7 1.9 1.6 16.8 7.2 18.8 7.2 1.6 0 1.9-.5 1.5-2.2-.4-1.2-.1-4.2.5-6.6.9-3.9.8-4.5-1.1-6.6-1.1-1.2-2.1-2.8-2.1-3.4 0-.7-.4-1.2-.8-1.2-.5 0-2.3-2-4.1-4.5-4.7-6.5-14.1-16.5-15.5-16.5-1.4 0-.7 8.2 1.3 14.2.5 1.8 1.1 4.9 1.3 6.8.3 3.2 0 3.6-2.9 4.5-1.8.5-3.3 1.5-3.3 2.3 0 .9.7 1.1 1.9.7 1.1-.3 2.2-.1 2.6.5.4.6-.5 1-2.2.9-3.8-.1-7-1.4-5.5-2.3.8-.5.7-1.5-.2-3.8-1.2-2.8-1.2-3.4.6-5.2 2.2-2.4 3.2-2-8.5-3.1l-6.9-.7-2.4-5.2c-2.1-4.6-2.3-5.9-1.5-10.2 1.2-6.3 2.2-8.8 5.8-14.9 1.6-2.8 4.2-8.2 5.8-12.2 2.6-6.9 2.7-7.3 1.1-9.7-2.6-4-8-9.6-9.2-9.6-.6 0-3.8-1.4-7-3.1-3.2-1.8-7.4-4-9.3-5l-3.4-1.8 5.8-5.6c3.2-3 6.6-5.5 7.6-5.5 1.1 0 1.9-.5 1.9-1.1 0-1.6 3.9-4.9 5.9-5 3.4-.3 5.8-.8 10.1-2.3 2.5-.8 5.2-1.2 6-.8.8.3 3.1.6 5 .6zm-90.3 6.8c-.3.8-.6.5-.6-.6-.1-1.1.2-1.7.5-1.3.3.3.4 1.2.1 1.9zM89 182c0 1.4-.6 2-2.2 1.9-1.7-.1-1.9-.2-.5-.6.9-.2 1.7-1.1 1.7-1.9 0-.8.2-1.4.5-1.4s.5.9.5 2zm64 0c-.7.4-.9 1.3-.6 1.9.4.6 1.2.9 1.7.6.5-.4.9 1.8.9 5 0 5.3-.1 5.6-2.2 5.3-1.5-.2-2.3.2-2.3 1.2 0 .8-.4 2.1-.8 2.7-.5.7-.7 3.9-.7 7 .1 3.2-.1 9.1-.6 13-.5 5.4-.4 7.3.5 7.3.7 0 .9.5.5 1.1-.7 1.3-27.5.2-28.4-1.1-.4-.6-7.9-1.9-20.5-3.4-1.1-.1-2.9-.7-4-1.3-1.9-1.1-1.9-1.2-.2-1.9 1-.3 3-.4 4.6-.1 2.6.5 2.8.4 2.5-2-.1-1.5.2-3.5.7-4.4.7-1.4.3-2.2-1.8-3.9-2.4-1.9-2.6-2.4-1.4-4.1 1.1-1.9 1-2-.8-1.4-1.2.3-2.1.2-2.1-.3s1.7-1.3 3.8-1.8c2.3-.4 3-.9 1.9-1.1-2.7-.7-1.4-2.8 1.6-2.8 4.1 0 4.2-1.3.1-3.1-2.2-.9-3.3-1.8-2.6-2.1.6-.3.9-1 .5-1.6-.4-.8-.1-.7.9.1.8.7 2.3 1 3.2.6.9-.3 6.9-.1 13.3.6 9.4 1 11.7.9 12.4-.1.6-1.1.9-1 1.4.2.3.9 1.8 1.6 3.3 1.7 1.5 0 4.8.3 7.5.7 5.1.8 5.3.5 4.8-6.6-.3-3.5 1.6-8.2 3-7.3.8.5.8.9-.1 1.4zm-65.8 6.1c.5.3 0 .9-1.2 1.2-1.6.4-2 .2-1.6-1 .3-.8.6-2 .7-2.6 0-.7.3-.5.6.3s1 1.8 1.5 2.1zm4.8-1.2c0 .4-1.1.6-2.5.3-1.4-.2-2.5-.6-2.5-.8 0-.2 1.1-.4 2.5-.4s2.5.4 2.5.9zm37.8 2.8c1.3 1.1 1.3 1.3.1 1.3-2.6 0-4-1.6-3.3-3.5.6-1.5.9-1.6 1.2-.4.2.7 1.1 2 2 2.6zm40.7 2.3c-.4 2.8-.9 4.9-1.2 4.7-.2-.3-.1-2.8.3-5.6s.9-5 1.1-4.7c.3.3.2 2.8-.2 5.6zm-12.8-.8c-.3.7-.5.2-.5-1.2s.2-1.9.5-1.3c.2.7.2 1.9 0 2.5zm133.3-1.8c0 .3-.4.8-1 1.1-.5.3-1 .1-1-.4 0-.6.5-1.1 1-1.1.6 0 1 .2 1 .4zm-222 4.5c0 .5-.9.7-2 .4-1.1-.3-2-.7-2-.9 0-.2.9-.4 2-.4s2 .4 2 .9zm15.6 1c-3.6.7-11.8.2-11.2-.8.2-.3 3.5-.4 7.3-.2 4.8.3 5.9.6 3.9 1zm74.9 3.1c.3.5-.1 1-1 1s-1.3-.5-1-1c.3-.6.8-1 1-1 .2 0 .7.4 1 1zm7.5 1c0 .5-.2 1-.4 1-.3 0-.8-.5-1.1-1-.3-.6-.1-1 .4-1 .6 0 1.1.4 1.1 1zm5 0c0 .5-.4 1-1 1-.5 0-1-.5-1-1 0-.6.5-1 1-1 .6 0 1 .4 1 1zm-128 2.5c0 .7-.6 1.5-1.3 1.8-1 .4-1.3-.2-.9-1.9.4-2.4 2.2-2.4 2.2.1zm2.7-.3c-.3.8-.6.5-.6-.6-.1-1.1.2-1.7.5-1.3.3.3.4 1.2.1 1.9zm134.3-1.8c0 1.1-1.9 1.5-2.5.6-.3-.5.1-1 .9-1 .9 0 1.6.2 1.6.4zm4 .6c0 .5-.4 1-1 1-.5 0-1-.5-1-1 0-.6.5-1 1-1 .6 0 1 .4 1 1zm-145.3 2c-.1 1.1-.5 2-.9 2-1 0-1-.4-.2-2.4.8-2.2 1.3-2 1.1.4zm286.1.7c-1 .2-2.8.2-4 0-1.3-.2-.5-.4 1.7-.4 2.2-.1 3.2.1 2.3.4zm24.7.4c-2.2.4-6.3.8-9.2.8-4.5.1-5.2.3-4.6 1.8.5 1.5.3 1.6-.8.5-.7-.6-2.1-1.2-3-1.2-1 0-2 .6-2.2 1.2-.3.7-.6.3-.6-.9-.1-1.8.4-2.1 2.7-1.9 1.5.1 3.8-.1 5.2-.5 1.4-.4 5.7-.7 9.5-.7 6.3 0 6.6.1 3 .9zm-259.2 4.6c-.7.2-1.9.2-2.5 0-.7-.3-.2-.5 1.2-.5s1.9.2 1.3.5zM320 210c0 .5-.4 1-1 1-.5 0-1-.5-1-1 0-.6.5-1 1-1 .6 0 1 .4 1 1zm7.5 0c.4.6-.5 1-1.9 1s-2.6-.5-2.6-1c0-.6.9-1 1.9-1 1.1 0 2.3.4 2.6 1zm9.5 1c0 1.2-.8 1.2-3.5 0-1.8-.8-1.7-.9.8-.9 1.5-.1 2.7.3 2.7.9zm7.8.8c.3.9-.3 1.3-1.9 1-1.2-.1-2.4-.9-2.7-1.6-.3-.9.3-1.3 1.9-1 1.2.1 2.4.9 2.7 1.6zm8.2.2c0 .5-1.1 1-2.5 1s-2.5-.5-2.5-1c0-.6 1.1-1 2.5-1s2.5.4 2.5 1zm10 1.1c0 .5-1.1.9-2.5.9s-2.5-.6-2.5-1.4c0-.9.8-1.2 2.5-.8 1.4.2 2.5.8 2.5 1.3zm-261.5-.1c-.3.5-1.1 1-1.6 1-.6 0-.7-.5-.4-1 .3-.6 1.1-1 1.6-1 .6 0 .7.4.4 1zm269.8.3c-.2.4-.5.7-.8.7h-2.6c-1.1 0-1.7-.4-1.4-1 .6-1 5.2-.7 4.8.3zM94 214c0 .5-.4 1-1 1-.5 0-1-.5-1-1 0-.6.5-1 1-1 .6 0 1 .4 1 1zm287 0c0 .5-1.3 1-3 1-1.6 0-3-.5-3-1 0-.6 1.4-1 3-1 1.7 0 3 .4 3 1zm-304.5 3.9c.3.5.1 1.2-.5 1.6-.5.3-1-.1-1-.9 0-1.8.6-2.1 1.5-.7zm127.4 9.3c3 1.1 7.6 2.2 10.3 2.5 4.6.6 4.8.7 4.8 3.8 0 2.8-.5 3.4-4.2 5-2.4.9-5.2 2.2-6.2 2.7-6 3.2-9.4 2.8-15.9-1.6-3.3-2.3-6.3-8.4-4.7-10 .5-.5 1-1.9 1-3.1 0-3.7 1.9-4.6 5.9-2.8 2 .9 6 2.5 9 3.5zm-92.6-.2c.4.4-.5.6-2 .5-1.5-.1-4.3-.3-6-.3-1.8-.1-3.3-.7-3.3-1.2 0-1.2 9.9-.3 11.3 1zm200.9 8.2c.4 2 0 2.3-2.4 2.3-2.9 0-3.2-.3-2.2-2.9.9-2.4 4.1-2 4.6.6zm10.5 0c-.3.8-.6.5-.6-.6-.1-1.1.2-1.7.5-1.3.3.3.4 1.2.1 1.9zm26.4-.2c.5 0 .9.6.9 1.4 0 .8-.9 1.4-1.9 1.3-1.1 0-1.7-.5-1.4-1 .3-.5-.1-1.4-.8-1.9-1.1-.8-1-.8.4-.4 1 .3 2.3.6 2.8.6zm-9.1 1c0 .5-.4 1-1 1-.5 0-1-.5-1-1 0-.6.5-1 1-1 .6 0 1 .4 1 1zm2.2 3.6c-1.6 1.1-2.5 1.1-4.6.1-3.8-1.7-3.2-2.3 2-1.9 4.1.4 4.4.5 2.6 1.8zm-17.3 1c.2.2-2.6.4-6.2.4-3.7 0-6.7-.4-6.7-1 0-.9 11.9-.4 12.9.6zm31.6-.6c-1.8.8-1.7.9.7.9 2.1.1 2.6.6 2.5 2.1-.1 1.4-.6 1.9-1.7 1.4-.8-.3-3.4-.9-5.7-1.1-7.7-1-4.9-3.7 4.2-4.1l2-.1-2 .9zm-50.3 6.6c.2 4.5-.3 5.7-4.9 12.4-2.8 4.1-5.3 8.7-5.7 10.2-.7 3-3.3 6.1-4.6 5.3-1.2-.7 4.2-20.8 5.8-21.3.6-.2 1.3.5 1.3 1.5.1 1.6.2 1.6.6 0 .2-.9 1.1-1.7 1.9-1.7.8 0 1.5-.3 1.5-.8.6-3.3.5-5.2-.2-5.2-1.4 0-1-2.4.7-4.9 2.2-3 3.3-1.6 3.6 4.5zm81.8-6.2c0 .3-.4.8-1 1.1-.5.3-1 .1-1-.4 0-.6.5-1.1 1-1.1.6 0 1 .2 1 .4zm-57.3 1.2c-.3.3-1.2.4-1.9.1-.8-.3-.5-.6.6-.6 1.1-.1 1.7.2 1.3.5zm7.3.4c1.3.9 1.3 1 0 1-.8 0-2.2-.5-3-1-1.3-.9-1.3-1 0-1 .8 0 2.2.5 3 1zm4.7.6c-.3.3-1.2.4-1.9.1-.8-.3-.5-.6.6-.6 1.1-.1 1.7.2 1.3.5zm-33.1 5.1c-1 1-1.9-.5-1-1.8.6-1.1.8-1.1 1.2 0 .2.7.1 1.5-.2 1.8zm3-1.8c-.4.5 0 1.2.6 1.4.8.3.6.6-.4.6-1.8.1-2.4-1-1.1-2.2.9-1 1.5-.8.9.2zm18.3 1.7c4.6 1.9 3.6 2.5-1.9 1.3-2.4-.6-5.3-.8-6.5-.6-1.1.3-3.1.1-4.5-.3-1.4-.5-1.8-.9-1-.9 1.3-.1 1.3-.2 0-1.1-2.2-1.5 9.7-.1 13.9 1.6zM341 246c0 .5-2.1.9-4.7.8l-4.8-.1 4.5-.7c2.5-.4 4.6-.8 4.8-.8.1-.1.2.2.2.8zm4 1c0 .5-.7.7-1.5.4-.8-.4-1.5-.8-1.5-1 0-.2.7-.4 1.5-.4s1.5.4 1.5 1zm6 .2c0 .5-1 .9-2.2.9-2.1.1-2.1.2-.3.6 4.2 1 3.5 2.1-1.4 2-2.8-.1-5.1-.5-5.1-1 0-.4.7-.7 1.5-.7.9 0 1.8-.6 2-1.3.6-1.3 5.5-1.7 5.5-.5zm8.9 1.4c.3.4-.4.4-1.6.1-1.3-.3-2.6-.1-2.9.4-.3.5.5.9 1.8.9 1.3.1 3.4.7 4.8 1.5 2.4 1.4 2.4 1.4.3 1.5-1.2 0-2.5-.5-2.8-1-.4-.6-1.8-.9-3.2-.8-2.1.3-2.6-.2-2.8-2.4-.3-2.5-.2-2.6 2.7-1.7 1.7.4 3.3 1.1 3.7 1.5zm-20.6.1c-.7.2-2.1.2-3 0-1-.3-.4-.5 1.2-.5 1.7 0 2.4.2 1.8.5zM315 253c0 .5-.2 1-.4 1-.3 0-.8-.5-1.1-1-.3-.6-.1-1 .4-1 .6 0 1.1.4 1.1 1zm-125.2 10.9c-.2.9-1.1 1.7-2.1 1.9-1.4.3-1.7-.4-1.7-4l.1-4.3 2 2.4c1.1 1.3 1.8 3.1 1.7 4zm11.3 30.2c.5 2 .3 3.6-.3 4-.6.4-.7 1.3-.2 2 .6 1.2.5 1.2-.9 0-1.8-1.5-2.3-5.1-.7-5.1.6 0 1-.7 1-1.5s-.4-1.5-1-1.5c-.5 0-1-.5-1-1.1 0-2.5 2.5 0 3.1 3.2zm72.7 17.4c-.2.9-.8 1.2-1.7.6-1.1-.7-1.1-1.3 0-3.2 1.1-2 1.4-2.1 1.7-.7.2 1 .2 2.5 0 3.3zm-156.1 7.7c-.3.7-.5.2-.5-1.2s.2-1.9.5-1.3c.2.7.2 1.9 0 2.5zm144.1 1.5c-.1 1 .8 5.1 2.1 9.2 2 6.2 2.3 8.6 1.7 15-1.1 13.4-9.5 26-18.4 27.7-4.7.9-21.1-2.6-28.5-6.1-10.6-5.1-18.5-14.1-20.1-23-.5-2.7 2-3.9 11.2-5 4.2-.6 6.3-.2 10.6 1.6l5.4 2.2 10.5-5.2c5.7-2.9 11.3-6 12.3-6.9 1-1 3.5-2.9 5.4-4.2 1.9-1.3 4.3-3.5 5.3-4.7 2.2-2.8 2.7-2.9 2.5-.6zm-142 11.3c0 1.6-.3 1-.9-1.5-.4-2.2-.8-5.4-.7-7 0-2.2.3-1.9.9 1.5.4 2.5.7 5.6.7 7zm258.2-7c0 .5-.2 1-.4 1-.3 0-.8-.5-1.1-1-.3-.6-.1-1 .4-1 .6 0 1.1.4 1.1 1zm9 7c0 .5-.2 1-.4 1-.3 0-.8-.5-1.1-1-.3-.6-.1-1 .4-1 .6 0 1.1.4 1.1 1zm-266.3 8.2c-.3.7-.5.2-.5-1.2s.2-1.9.5-1.3c.2.7.2 1.9 0 2.5zM351 338c0 .5-.2 1-.4 1-.3 0-.8-.5-1.1-1-.3-.6-.1-1 .4-1 .6 0 1.1.4 1.1 1zm9.3.5c.4.8.3 1.6-.1 1.9-.4.3-.9-.4-.9-1.5-.2-2.3.3-2.5 1-.4zm-9.2 5.2c-1 1.7-1 1.6-1.1-.3 0-2.3 1.3-4.1 1.8-2.5.2.6-.1 1.8-.7 2.8zm-4.4-.1c-.3.3-1.2.4-1.9.1-.8-.3-.5-.6.6-.6 1.1-.1 1.7.2 1.3.5zm-4.9 2.6c-.2.6-1 1.4-1.6 1.6-.7.2-1-.2-.6-1.2.7-1.8 2.8-2.2 2.2-.4zm3.4 3.3c.2 1.9 0 3.5-.4 3.5-.9 0-.9-.1-1.3-4.7-.4-4.4 1.2-3.3 1.7 1.2zm-223.5-.3c-.3.7-.5.2-.5-1.2s.2-1.9.5-1.3c.2.7.2 1.9 0 2.5zm226 0c-.3.8-.6.5-.6-.6-.1-1.1.2-1.7.5-1.3.3.3.4 1.2.1 1.9zm-12.7.8c0 .5-.4 1-1 1-.5 0-1-.5-1-1 0-.6.5-1 1-1 .6 0 1 .4 1 1zm5.8 2.9c1.2 1.1 2.2 2.5 2.2 3.1 0 .9-.5.9-1.7-.1-1.5-1.2-1.6-1.2-1 .5.6 1.6.5 1.7-.7.7-.8-.7-1.2-1.9-.9-2.7.3-.8 0-1.4-.6-1.4s-1.1.5-1.1 1.2c0 .6-.2.9-.5.6-.7-.6.5-3.8 1.4-3.8.3.1 1.6.9 2.9 1.9zm7.6 8.6c-.4.8-1 1.2-1.5.9-1.1-.6-.2-2.4 1.1-2.4.5 0 .7.7.4 1.5zM110 365c0 .5-.5 1-1.1 1-.5 0-.7-.5-.4-1 .3-.6.8-1 1.1-1 .2 0 .4.4.4 1zm11.7 14.2c-.2 1.3-.4.5-.4-1.7-.1-2.2.1-3.2.4-2.3.2 1 .2 2.8 0 4zm-1 7c-.3.8-.6.5-.6-.6-.1-1.1.2-1.7.5-1.3.3.3.4 1.2.1 1.9zm-1.3 7.7c-.4 2.3-.9 4-1.1 3.7-.3-.3-.2-2.3.2-4.6s.9-3.9 1.1-3.7c.3.2.2 2.3-.2 4.6z"/><path d="M70.3 179.2c-.2 1.8 0 2 .7.8 1.2-1.8 1.3-3 .2-3-.4 0-.9 1-.9 2.2zM69 183c0 .5.5 1 1 1 .6 0 1-.5 1-1 0-.6-.4-1-1-1-.5 0-1 .4-1 1zM251.4 217c-2.1.8-3.4 3.6-4.8 10.2-1.2 5.5 4.6 14.6 11.1 17.4 3.7 1.6 13.9 1.9 14.8.4.3-.6 1.5-1 2.6-1 1.2 0 1.7-.4 1.3-1.1-.4-.8 0-.9 1.5-.4 1.2.3 3.5.3 5.2 0l3-.7-2.2-1.9c-1.2-1-3-2.1-4-2.4-1.1-.4-1.9-1-1.9-1.4 0-.5-2.8-2.1-6.2-3.7-5-2.2-5.8-2.9-4-3.2 1.2-.2 5.1.6 8.5 1.7 3.4 1.1 7.8 2.1 9.7 2.3 3 .3 3.5 0 3.8-2 .4-2.9-1.3-4.4-10.3-8.6-4.5-2.1-10-3.7-15.3-4.5-4.6-.7-8.9-1.4-9.5-1.6-.7-.2-2.2 0-3.3.5zM110 196.1c0 .5.5.7 1 .4.6-.3 1-.8 1-1.1 0-.2-.4-.4-1-.4-.5 0-1 .5-1 1.1zM116.2 197.4c.1 1 .8 1.7 1.3 1.7 1.5-.1 1.2-2.4-.3-2.9-.9-.3-1.3.2-1 1.2zM319.7 247.1c.7.7 1.5 1 1.8.7.3-.3-.2-.9-1.2-1.2-1.4-.6-1.5-.5-.6.5zM141.7 64.7c-.4.3-.7 1.1-.7 1.7 0 .6.5.5 1.2-.2.6-.6.9-1.4.7-1.7-.3-.3-.9-.2-1.2.2zM143.5 69c.3.5.8 1 1.1 1 .2 0 .4-.5.4-1 0-.6-.5-1-1.1-1-.5 0-.7.4-.4 1zM137.6 70.9c-.4.6-2 .8-3.5.5-3.3-.7-4.2.3-3.4 3.4.6 2.6 2.1 2.9 1.9.5-.1-1.2.7-1.9 2.2-2.1 2.3-.3 2.4-.1 1.9 4.7-.6 6.8 1 5.5 1.9-1.5.6-5.4.2-7.6-1-5.5zM142.9 73.3c-1.6 1.2-2.2 7.7-.6 7.7 1.1 0 2.8-5 2.5-7.1-.2-1.4-.6-1.5-1.9-.6zM166.2 75.3c-1.7 1.8-2.1 3.1-1.6 5.5.4 1.8.9 3.2 1.3 3.2.3 0 1.3-2.5 2.2-5.5 1.8-6 1.4-6.7-1.9-3.2zM188.9 83c-1.1 2.9-3.9 4.2-3.9 1.7 0-.7-.5-.5-1 .5-1.4 2.3.2 9.3 2 9.3.8 0 1.4-.6 1.2-1.4-.2-.8.3-1.8 1-2.2 1-.7 1-.9-.2-.9-.9 0-1.1-.3-.5-.8 1-.7 3.6-9.2 2.8-9.2-.2 0-.9 1.3-1.4 3zM129.3 86.7c-1.8.6-1.6 3.3.1 3.3 1.5 0 3-2.7 1.8-3.3-.4-.3-1.3-.2-1.9 0zM52 87.8c0 1.1 9.9 4.6 10.7 3.8.6-.6-7.4-4.5-9.4-4.6-.7 0-1.3.4-1.3.8zM176.1 88.6c0 1.1.3 1.4.6.6.3-.7.2-1.6-.1-1.9-.3-.4-.6.2-.5 1.3zM45.6 99.7c-.6 1.4-.5 1.5.5.6.7-.7 1-1.5.7-1.8-.3-.3-.9.2-1.2 1.2zM93.3 104.1c-3.8 1.1-4.3 1.8-3.2 4.4.7 1.8.8 1.8.8.2.1-1 .6-1.5 1.1-1.2.6.3 1 0 1-.7.1-.8.6-.6 1.5.6 1.3 1.7 1.5 1.8 1.5.3 0-.9.4-1.7.9-1.7s1.1-.7 1.5-1.5c.6-1.7-.4-1.8-5.1-.4zM83 106.9c-2.5.7-4.3 5.1-2 5.1.6 0 .9-.4.6-.9-.9-1.4 2.6-2.3 3.7-.9.6.9.7.7.3-.6-.5-1.3-.2-1.7.9-1.2.9.3 1.5 0 1.5-.9 0-1.6-1-1.7-5-.6zM168 109.7c0 1 4.3 3.3 6 3.3 1.7 0 1.1-1.7-.7-2.3-1-.2-2.6-.8-3.5-1.2-1-.4-1.8-.3-1.8.2zM67.7 111.1c-.9.6-1.5 1.4-1.2 1.9.9 1.4 4 .4 4.3-1.3.4-1.9-.5-2.1-3.1-.6zM60.1 113.2c-2.1.6-3 1.3-2.4 1.9 1 1 7.3-1 7.3-2.3 0-1-.5-.9-4.9.4zM34.6 113.9c-.4.7-.5 1.5-.2 1.8.9.9 1.9-.4 1.4-1.8-.4-1.1-.6-1.1-1.2 0zM32.1 116.6c0 1.1.3 1.4.6.6.3-.7.2-1.6-.1-1.9-.3-.4-.6.2-.5 1.3zM50.7 115.6c-.3.3-1.9.7-3.4.9-4 .3-7.3 1.5-7.3 2.6 0 .6.8.8 1.8.5.9-.3 3.4-.8 5.5-1.2 2-.3 4-1.1 4.3-1.6.7-1.1 0-2.1-.9-1.2zM152.2 118c0 1.9.2 2.7.5 1.7.2-.9.2-2.5 0-3.5-.3-.9-.5-.1-.5 1.8zM33.1 126.7c-.1 2.7-1.7 3.8-2.5 1.8-.5-1.3-.9-1.3-2.6-.3-3.2 2-2.6 4.2 1 3.4 4.1-.8 2.9 1-1.2 1.9-2.7.6-2.9.9-1.4 1.7 1.3.8 1.5 1.3.5 2.4-.9 1.1-.7 1.5.7 2.1 2.4.9 4.9 3.3 3.5 3.3-.6 0-1.1.7-1.1 1.5s-.9 1.5-2 1.5c-1.4 0-2 .6-1.8 1.7.2 1.3-.3 1.7-1.9 1.6-1.5-.2-2.3.3-2.3 1.3 0 .8.4 1.3.9.9.5-.3 2.1 0 3.5.6 2 .9 2.6 2 2.7 4.3 0 2.6.2 2.8.9 1.1.5-1.1 1.1-3.3 1.5-4.9.5-2.6.8-2.8 4.1-2.1 4.5.8 3.7-1-.8-2-3-.7-3.1-.8-1.3-2.1 1.1-.8 1.3-1.4.6-1.4-.9 0-1.1-1.9-.8-7.4.3-4.1.7-7.8 1-8.3.2-.4.1-1.7-.4-2.8-.7-1.9-.8-1.9-.8.2zM91.8 126.7c.7.3 1.6.2 1.9-.1.4-.3-.2-.6-1.3-.5-1.1 0-1.4.3-.6.6zM151.6 129.3c.3 1 .9 1.5 1.2 1.2.3-.3 0-1.1-.7-1.8-1-.9-1.1-.8-.5.6zM24.1 130.6c0 1.1.3 1.4.6.6.3-.7.2-1.6-.1-1.9-.3-.4-.6.2-.5 1.3zM150.4 134.6c.3.9.6 2.1.6 2.7 0 .8.3.8 1 .1 1.2-1.2.3-4.4-1.2-4.4-.6 0-.7.7-.4 1.6z"/><path d="M23.2 134.9c-.1.8-2 4.3-4.3 7.8-2.2 3.6-3.8 7.1-3.5 7.9.3.9-.1 1.4-1.1 1.4-1.3 0-1.4.3-.6 1.1.9.9.8 1.8-.4 3.5-.9 1.5-1.1 2.4-.4 2.4 1.7 0 5.5-8.1 4.2-8.9-.8-.5-.6-1.3.4-2.7 1.4-1.9 1.4-1.9 1.5.1 0 1.7.2 1.7 1.7-.5.9-1.4 2.1-2.8 2.6-3.1.4-.3.7-2.8.4-5.5-.2-2.7-.4-4.3-.5-3.5zM202 135.7c0 .5.9 1.8 2 2.8 1.1 1 2 1.4 2 .8 0-.5-.9-1.8-2-2.8-1.1-1-2-1.4-2-.8zM161.5 139c-.3.5-.1 1 .4 1 .6 0 1.1-.5 1.1-1 0-.6-.2-1-.4-1-.3 0-.8.4-1.1 1zM150.8 142.5c-.5 2.5.3 4 1.6 2.8.9-1 .7-5.3-.3-5.3-.5 0-1.1 1.1-1.3 2.5zM165.6 142.9c1.2 1.1 7.4 3.1 7.4 2.4 0-.3-.8-1.2-1.7-1.9-2-1.5-7.3-2-5.7-.5zM22.6 145.9c-.4.7-.5 1.5-.2 1.8.9.9 1.9-.4 1.4-1.8-.4-1.1-.6-1.1-1.2 0zM36 145.9c0 .5.7 1.2 1.6 1.5 2.4.9 2.8.7 1.4-.9-1.4-1.7-3-2-3-.6zM153.7 148c.3 1.1.7 2 .9 2 .2 0 .4-.9.4-2s-.4-2-.9-2-.7.9-.4 2zM63 149c0 1.1.4 2 .9 2s1.1-.9 1.4-2c.3-1.3 0-2-.9-2-.8 0-1.4.9-1.4 2zM157 150c0 .5.5 1 1 1 .6 0 1-.5 1-1 0-.6-.4-1-1-1-.5 0-1 .4-1 1zM167 151.5c0 1.4.5 2.5 1.1 2.5.5 0 .7-.5.3-1.1-.3-.6-.1-1.5.6-1.9.8-.5.7-.9-.4-1.3-1.2-.5-1.6 0-1.6 1.8zM177.1 152.6c0 1.1.3 1.4.6.6.3-.7.2-1.6-.1-1.9-.3-.4-.6.2-.5 1.3zM26 155c0 .5.5 1 1.1 1 .5 0 .7-.5.4-1-.3-.6-.8-1-1.1-1-.2 0-.4.4-.4 1zM179.2 156c0 1.4.2 1.9.5 1.2.2-.6.2-1.8 0-2.5-.3-.6-.5-.1-.5 1.3zM9 158c-1.2 1.6-1.8 3-1.4 3 .9 0 4.4-4.1 4.4-5.2 0-1.5-.8-.9-3 2.2zM166.1 156.6c0 1.1.3 1.4.6.6.3-.7.2-1.6-.1-1.9-.3-.4-.6.2-.5 1.3zM62.8 156.7c.6.2 1.8.2 2.5 0 .6-.3.1-.5-1.3-.5-1.4 0-1.9.2-1.2.5zM152.5 157c.3.5.1 1-.4 1-.6 0-1.1 1.1-1.1 2.5 0 3.9 2.5 3 2.7-1 .1-1.9-.3-3.5-.8-3.5-.6 0-.7.4-.4 1zM146.5 160c.3.5 1.1 1 1.6 1 .6 0 .7-.5.4-1-.3-.6-1.1-1-1.6-1-.6 0-.7.4-.4 1zM8.9 163.7c-.7 1.6-1.5 3.1-1.7 3.5-.2.5.1.8.7.8.9 0 4.1-5 4.1-6.5s-1.8-.2-3.1 2.2zM2.7 166c-1.6 2.2-2.6 4.6-2.4 5.3.3.7.9.1 1.5-1.3.5-1.4 1.9-3.4 3.1-4.4 1.1-1.1 2.1-2.3 2.1-2.8 0-1.8-1.6-.6-4.3 3.2zM26 163.6c-1.9.7-2.9 1.3-2.2 1.3 1.8.1 1.5 1.9-.5 2.4-1.4.3-1.2.6 1 1.5 1.5.6 2.7 1.7 2.7 2.4 0 2.2 2.1-.7 2.4-3.3.1-1.4.5-3 .9-3.6 1.1-1.8-.5-2-4.3-.7zM35 164c0 .6.7 1 1.5 1s1.5-.2 1.5-.4-.7-.6-1.5-1c-.8-.3-1.5-.1-1.5.4zM32 167.4c0 .2.9.6 2 .9 1.1.3 1.8.1 1.4-.4-.5-.9-3.4-1.3-3.4-.5zM2.7 172.5c-2.5 3.2-2.8 4.2-2.5 10 .2 4.4.7 6.5 1.6 6.5 1.1 0 1.6-1.3 1.3-3.3-.2-1.2 1.7-.8 2.2.5.3.7.6 0 .6-1.6.1-3 .5-3 6.9-1.1 1.3.5 2.2.3 2.2-.3s-1.7-1.4-3.7-1.7c-6.5-1.1-6.4-1-5.7-7 .4-3 .5-5.5.3-5.5s-1.7 1.6-3.2 3.5zm.3 4.6c0 .6-.4.7-1 .4-.5-.3-1-1.1-1-1.6 0-.6.5-.7 1-.4.6.3 1 1.1 1 1.6zM125 169.9c0 .6.5 1.1 1 1.1.6 0 1 .9 1 2s.4 2 .9 2c1.3 0 .2-3.7-1.5-5.1-1-.8-1.4-.8-1.4 0zM17.2 171.5c-1.5 1.7-1.3 7.5.3 7.5.6 0 1.1-.8 1.1-1.8 0-.9.3-2.9.7-4.5.8-2.9-.1-3.5-2.1-1.2zM66.5 171c.3.5.8 1 1.1 1 .2 0 .4-.5.4-1 0-.6-.5-1-1.1-1-.5 0-.7.4-.4 1z"/><path d="M7 173.7c0 3.5 1.5 5.2 2.4 2.7.3-.9-.1-2.5-.9-3.7-1.5-2.1-1.5-2.1-1.5 1zM98.5 172c-1.4.6-1.6.9-.5 1.1 5.1.6 6 .5 6-.7 0-1.6-2.4-1.7-5.5-.4zM36 174.2c0 1.8 1.8 3.4 2.8 2.4.3-.4-.2-1.4-1.1-2.3-1.6-1.6-1.7-1.6-1.7-.1zM11 175c0 .5.5 1 1 1 .6 0 1-.5 1-1 0-.6-.4-1-1-1-.5 0-1 .4-1 1zM26 175c0 .5.5 1 1.1 1 .5 0 .7-.5.4-1-.3-.6-.8-1-1.1-1-.2 0-.4.4-.4 1zM126.8 179c-.7 2.4-.3 3.8.8 2.8.3-.4.4-1.7.2-3l-.3-2.3-.7 2.5zM172 178.9c0 2.4 1 5.1 1.9 5.1.4 0 .5-1.6.3-3.5-.4-3.7-2.2-4.9-2.2-1.6zM17 182.9c0 .6 1.4 1.1 3 1.1 2.6 0 3 .4 3 2.6 0 1.4.4 2.3 1 1.9.6-.3 1 .1 1 1.1 0 1.1-.6 1.5-2 1.1-1.1-.3-1.8-.1-1.4.4.3.5 1.4.9 2.4.9s2.1.4 2.4.9c.3.5 2 .7 3.8.5 1.8-.1 6.7-.4 10.8-.5l7.5-.2-6-.8c-3.3-.4-7-.5-8.2-.2-1.4.3-2.3 0-2.3-.6s-.3-1-.7-1c-.5.1-1.8.1-3.1 0-2.1-.1-2.3-.5-1.7-3 .6-2.7.4-2.9-3-3.5-2-.4-4.3-1-5.1-1.3-.8-.3-1.4 0-1.4.6zM11.5 187c.3.5 1 1 1.6 1 .5 0 .9-.5.9-1 0-.6-.7-1-1.6-1-.8 0-1.2.4-.9 1zM12.4 189.8c.3.5 2.2.9 4.3 1 2.9 0 3.3-.2 1.8-.8-2.6-1.1-6.8-1.2-6.1-.2zM180 193.5c0 .8.5 1.5 1 1.5.6 0 1-.7 1-1.5s-.4-1.5-1-1.5c-.5 0-1 .7-1 1.5zM389 201.5c0 .8.4 1.5 1 1.5.5 0 .7-.7.4-1.5-.4-.8-.8-1.5-1-1.5-.2 0-.4.7-.4 1.5zM.5 205c.3.5.8 1 1.1 1 .2 0 .4-.5.4-1 0-.6-.5-1-1.1-1-.5 0-.7.4-.4 1zM348.5 231c.3.5.8 1 1.1 1 .2 0 .4-.5.4-1 0-.6-.5-1-1.1-1-.5 0-.7.4-.4 1zM382.3 234.3c-1 2.1-1 2.7 0 2.8.6 0 3.3.3 6 .5 2.6.3 4.7.1 4.7-.4 0-1.1-6.6-2.6-7.9-1.7-.5.3-1.1-.5-1.3-1.7-.3-2.1-.4-2.1-1.5.5zM395.6 232.8c-.2.4-.1 1.4.5 2.2.7 1.2.9 1 .9-.8 0-2.3-.5-2.8-1.4-1.4zM373.5 237c-.4.6.6 1 2.2 1 2.2 0 2.5-.2 1.3-1-1.9-1.2-2.7-1.2-3.5 0zM376.3 241.7c1.5.2 3.7.2 5 0 1.2-.2 0-.4-2.8-.4-2.7 0-3.8.2-2.2.4zM372.1 244.4c1 .9 7.9 1.4 7.9.5 0-.5-1.9-.9-4.2-.9-2.3 0-3.9.2-3.7.4zM373.8 251.7c.7.3 1.6.2 1.9-.1.4-.3-.2-.6-1.3-.5-1.1 0-1.4.3-.6.6zM336.8 308.7c.7.3 1.6.2 1.9-.1.4-.3-.2-.6-1.3-.5-1.1 0-1.4.3-.6.6zM342.5 309c-1.9.8-1.9.9.2.9 1.2.1 2.5-.4 2.8-.9.7-1.2-.2-1.2-3 0zM368.8 321.7c.7.3 1.6.2 1.9-.1.4-.3-.2-.6-1.3-.5-1.1 0-1.4.3-.6.6zM352.5 331c-.3.5.3 1 1.4 1 1.2 0 2.1-.5 2.1-1 0-.6-.6-1-1.4-1-.8 0-1.8.4-2.1 1zM348 333.9c0 .5 1.6 1.1 3.6 1.3 3.4.4 5-.3 3.7-1.6-1-.9-7.3-.7-7.3.3zM390.5 341.9c-.6 1.1.9 2.3 1.9 1.4.9-.9.7-2.3-.3-2.3-.6 0-1.2.4-1.6.9zM385.6 344.6c-.9.8-1.6 1.9-1.6 2.3 0 .5-1.3 1.1-2.9 1.4-1.6.3-3.5 1.2-4.2 2-.8.7-2.9 2-4.7 2.8-1.8.8-3.5 2.2-3.8 3.2-.3 1-.8 1.6-1.1 1.3-.3-.2-2.3.5-4.4 1.6-2.6 1.3-3.9 2.7-3.9 4.1 0 1.1-.3 1.7-.6 1.4-.9-.8-4.4 1.1-4.4 2.3 0 .6.9 1 2 1s2-.4 2-1c0-.5 1.5-1.8 3.4-2.7 1.9-1 5.4-3.2 7.9-5 2.4-1.8 5-3.3 5.7-3.5.7-.2 2.2-1.2 3.4-2.2 1.3-1.3 2.1-1.6 2.4-.8.2.7 1.1 1.2 1.9 1.2 1.2 0 1.3-.3.4-1.3-.8-1.1-.2-2.1 2.9-4.6 2.2-1.8 3.8-3.6 3.5-4.2-.9-1.3-2.1-1.1-3.9.7zM395 365.2c0 .4.7.8 1.5.8s1.5-.4 1.5-.8c0-.5-.7-.9-1.5-.9s-1.5.4-1.5.9zM351 368.2c0 .9.5 2 1 2.3 1.3.8 1.3-.5 0-2.5-.8-1.3-1-1.3-1 .2zM394 371.4c0 .9.5 1.6 1 1.6.6 0 1-.4 1-.9 0-.6-.4-1.3-1-1.6-.5-.3-1 .1-1 .9zM398 378.5c0 .8.5 1.5 1 1.5.6 0 1-.7 1-1.5s-.4-1.5-1-1.5c-.5 0-1 .7-1 1.5zM392.1 380.6c0 1.1.3 1.4.6.6.3-.7.2-1.6-.1-1.9-.3-.4-.6.2-.5 1.3zM394.5 399c-.3.5.1 1 1 1s1.3-.5 1-1c-.3-.6-.8-1-1-1-.2 0-.7.4-1 1z"/></svg>