<svg height="128" overflow="hidden" width="1619.8973" xmlns="http://www.w3.org/2000/svg" xmlns:xlink="http://www.w3.org/1999/xlink"><clipPath id="a"><path d="m135.70913 1.101004h405.01571v31.003996h-405.01571z"/></clipPath><text x="122.56585" y="286.48212"><tspan x="122.56585" y="286.48212"/></text><g clip-path="url(#a)" fill="#ff6e40" transform="matrix(4.1285001 0 0 4.1285001 -569.31818 -4.545495)"><path d="m153.38145 5.499026h-10.80321v7.449799h10.42168v4.39759h-10.42168v14.759039h-4.67872v-31.004018h15.48193z"/><path d="m169.28506 18.8926 9.5984 13.212854h-5.7229l-8.85542-12.690766h-.84337v12.690766h-4.67872v-31.004018h5.48193q6.14458 0 8.8755 2.309236 3.01205 2.570281 3.01205 6.787149 0 3.293172-1.88755 5.66265-1.88755 2.369478-4.97992 3.032129zm-5.82329-3.554217h1.48594q6.64659 0 6.64659-5.080321 0-4.759036-6.46586-4.759036h-1.66667z"/><path d="m201.73486 24.57533h-13.27309l-3.45382 7.530124h-5.04016l15.34137-32.95181 14.7992 32.95181h-5.12049zm-1.90763-4.39759-4.59839-10.542168-4.81928 10.542168z"/><path d="m213.96378 32.105454v-33.112452l22.61044 23.654617v-21.546183h4.67871v32.891568l-22.61044-23.59438v21.70683z"/><path d="m271.01 3.287923v5.341513q-3.90937-3.270709-8.08968-3.270709-4.60609 0-7.76068 3.309415-3.17394 3.290063-3.17394 8.050976 0 4.702853 3.17394 7.934855 3.17394 3.232002 7.78003 3.232002 2.38046 0 4.04484-.774132.92896-.387067 1.91598-1.045079 1.00637-.658012 2.10951-1.586971v5.438277q-3.87066 2.18693-8.12839 2.18693-6.40595 0-10.93461-4.470618-4.50933-4.50932-4.50933-10.876558 0-5.709225 3.77389-10.179838 4.6448-5.476986 12.01841-5.476986 4.02549 0 7.78003 2.186923z"/><path d="m294.92763 5.499026h-12.42972v7.449799h12.06828v4.39759h-12.06828v10.361445h12.42972v4.397594h-17.10843v-31.004018h17.10843z"/><path d="m317.8715 6.132859-3.65778 2.16757q-1.02572-1.780503-1.95468-2.322396-.96767-.619306-2.49657-.619306-1.87727 0-3.11589 1.064432-1.23861 1.045078-1.23861 2.63205 0 2.186923 3.25136 3.522301l2.9804 1.219258q3.63843 1.470852 5.32217 3.599715 1.68374 2.109511 1.68374 5.186686 0 4.122254-2.74818 6.812361-2.76752 2.70947-6.87042 2.70947-3.89002 0-6.4253-2.30305-2.49657-2.303041-3.11588-6.483355l4.56737-1.006372q.30966 2.63205 1.08379 3.638422 1.39345 1.93533 4.0642 1.93533 2.1095 0 3.50295-1.412791 1.39343-1.412791 1.39343-3.580362 0-.870899-.25159-1.586971-.23224-.735426-.75478-1.335378-.50318-.619306-1.31602-1.141845-.81284-.541892-1.93533-1.025725l-2.88365-1.199905q-6.13499-2.593343-6.13499-7.586496 0-3.367475 2.57398-5.631812 2.574-2.28369 6.40595-2.28369 5.16734 0 8.07033 5.031859z"/><path d="m346.99393 3.287923v5.341513q-3.90937-3.270709-8.08968-3.270709-4.60609 0-7.76068 3.309415-3.17394 3.290063-3.17394 8.050976 0 4.702853 3.17394 7.934855 3.17394 3.232002 7.78003 3.232002 2.38046 0 4.04484-.774132.92896-.387067 1.91598-1.045079 1.00638-.658012 2.10951-1.586971v5.438277q-3.87066 2.18693-8.12839 2.18693-6.40595 0-10.93461-4.470618-4.50933-4.50932-4.50933-10.876558 0-5.709225 3.7739-10.179838 4.64479-5.476986 12.01841-5.476986 4.02548 0 7.78002 2.186923z"/><path d="m352.0963 16.477123q0-6.313119 4.62833-10.844621 4.60897-4.531502 11.077-4.531502 6.39059 0 10.96082 4.570233 4.5896 4.570234 4.5896 10.980179 0 6.448675-4.60897 10.941447-4.62832 4.512141-11.17383 4.512141-5.79025 0-10.39921-4.008641-5.07374-4.434675-5.07374-11.619236zm4.55087.0581q0 4.957541 3.33084 8.152831 3.31149 3.19529 7.64934 3.19529 4.70579 0 7.93981-3.253386 3.23402-3.292117 3.23402-8.017273 0-4.783252-3.19529-8.017274-3.17592-3.253386-7.86235-3.253386-4.66706 0-7.88172 3.253386-3.21465 3.214656-3.21465 7.939812z"/><path d="m403.12041 32.105454v-31.004018h4.65863q3.11245 0 4.95984.481927 1.86747.481928 3.15261 1.626506 1.30522 1.184739 2.06827 2.951807.78314 1.787149.78314 3.614458 0 3.333333-2.5502 5.64257 2.46988.843374 3.89558 2.951807 1.44578 2.088354 1.44578 4.859438 0 3.634538-2.57028 6.144575-1.54618 1.54619-3.4739 2.1486-2.10843.58233-5.28112.58233zm4.67871-17.690766h1.46587q2.61044 0 3.81526-1.144578 1.2249-1.164659 1.2249-3.413655 0-2.188755-1.24498-3.313253-1.24498-1.144578-3.61446-1.144578h-1.64659zm0 13.293172h2.89157q3.17269 0 4.65863-1.24498 1.56627-1.345381 1.56627-3.413654 0-2.008032-1.50603-3.373494-1.46586-1.345381-5.24096-1.345381h-2.36948z"/><path d="m425.59027 16.477123q0-6.313119 4.62833-10.844621 4.60897-4.531502 11.077-4.531502 6.39059 0 10.96083 4.570233 4.58959 4.570234 4.58959 10.980179 0 6.448675-4.60896 10.941447-4.62833 4.512141-11.17384 4.512141-5.79024 0-10.39921-4.008641-5.07374-4.434675-5.07374-11.619236zm4.55087.0581q0 4.957541 3.33085 8.152831 3.31148 3.19529 7.64933 3.19529 4.70579 0 7.93981-3.253386 3.23403-3.292117 3.23403-8.017273 0-4.783252-3.1953-8.017274-3.17592-3.253386-7.86235-3.253386-4.66705 0-7.88172 3.253386-3.21465 3.214656-3.21465 7.939812z"/><path d="m479.40553 5.499026h-10.80322v7.449799h10.42169v4.39759h-10.42169v14.759039h-4.67871v-31.004018h15.48193z"/><path d="m500.28907 5.499026h-10.80321v7.449799h10.42169v4.39759h-10.42169v14.759039h-4.67872v-31.004018h15.48193z"/><path d="m521.89548 24.57533h-13.27309l-3.45381 7.530124h-5.04016l15.34136-32.95181 14.7992 32.95181h-5.12048zm-1.90763-4.39759-4.59839-10.542168-4.81928 10.542168z"/></g></svg>